<svg xmlns="http://www.w3.org/2000/svg" width="300" height="51" viewBox="0 0 300 51" fill="none"><path d="M80.3464 30.3459C81.0726 23.7435 85.5621 18.8574 91.438 18.8574C98.1729 18.8574 101.738 24.1392 102.332 30.3459H80.3464ZM91.5707 14.5661C82.129 14.5661 75.1961 22.4889 75.1961 32.3927C75.1961 43.0225 82.8552 50.2192 92.231 50.2192C98.7011 50.2192 102.86 47.6445 106.294 43.8147L103.125 40.9758C100.352 43.881 97.0505 45.7957 92.363 45.7957C86.3544 45.7957 81.0726 41.6365 80.3464 34.4394H107.417C107.483 33.6473 107.483 33.1188 107.483 32.6569C107.483 22.6209 101.672 14.5661 91.5707 14.5661Z" fill="white"></path><path d="M172.647 3.20976L158.121 44.3431L144.586 3.07752H141.945L128.41 44.3431L113.885 3.20976H110.055L126.826 49.757H129.599L143.134 9.61425L156.669 49.757H159.442L176.213 3.20976H172.647Z" fill="white"></path><path d="M183.406 33.383L195.62 6.64263L207.769 33.383H183.406ZM194.036 2.87984L172.511 49.427H176.077L181.953 36.4861H209.221L215.097 49.427H218.861L197.336 2.87984H194.036Z" fill="white"></path><path d="M228.102 3.20976H224.668V49.427H255.238V46.2577H228.102V3.20976Z" fill="white"></path><path d="M278.938 23.6115L299.142 3.20976H294.454L265.007 33.581V3.20976H261.573V49.427H265.007V37.6745L276.495 26.0544L295.51 49.427H300L278.938 23.6115Z" fill="white"></path><path d="M1.17411 3.94836C0.884607 3.86492 0.712672 3.71191 0.636821 3.46413C0.569819 3.24924 0.60648 3.06341 0.748071 2.87628C1.4497 1.94382 4.35611 1.45125 6.19679 1.45125H6.33838C6.4256 1.45384 6.50752 1.45662 6.58843 1.45915C6.58843 1.56277 6.60008 1.66517 6.63044 1.77139C6.65037 1.83256 6.67847 1.89373 6.70623 1.94965C4.79984 3.33572 2.30431 4.26817 1.17411 3.94836ZM75.7029 9.70377L75.719 9.69289L75.7165 9.68985C76.4602 9.09695 77.0162 8.28709 77.3029 7.34854C78.0771 4.8181 76.6498 2.13166 74.119 1.35545C73.662 1.21894 73.1895 1.14638 72.7157 1.14638C70.5914 1.14638 68.7486 2.51044 68.1279 4.54501C67.8379 5.48052 67.8495 6.46029 68.1304 7.36803H68.1279L68.1389 7.39022C68.2366 7.69923 68.3654 8.00008 68.5259 8.28708L69.2671 10.0033L59.4106 42.4638L46.7309 0.705658L43.7393 1.6141L39.8102 0.420987L27.0438 42.4638L25.6908 38.008L25.938 37.9352L23.7462 29.9234C23.7462 29.9234 23.3227 24.54 23.1649 23.9976C23.0071 23.455 21.8813 21.9645 21.2851 19.9145C20.6889 17.8647 16.185 0 16.185 0L10.1724 1.76408L9.10321 1.30108C8.97777 1.25053 8.80734 1.19215 8.59879 1.13421C8.41801 0.610831 7.85288 0.312503 7.31816 0.476845C7.09537 0.546362 6.91459 0.685201 6.78714 0.860871C6.64558 0.854851 6.50021 0.849803 6.34722 0.84702C4.85167 0.824495 1.23858 1.21435 0.263882 2.51472C0.00471981 2.85402 -0.0635471 3.24419 0.0590806 3.64161C0.191822 4.08487 0.523043 4.38805 1.01103 4.52987C1.21962 4.58851 1.45349 4.61634 1.70886 4.61634C3.23981 4.61634 5.48378 3.60323 7.13991 2.38377C7.37376 2.50565 7.65313 2.53925 7.92239 2.45912C8.26499 2.3529 8.51283 2.08868 8.61012 1.77139C8.67336 1.79158 9.4271 2.1903 9.74893 2.35542L20.5576 39.5167L21.3422 39.2861L24.4124 49.3967L27.0438 48.5977L29.6753 49.3967L43.2273 4.76677L56.7793 49.3967L59.4106 48.5977L62.0422 49.3967L73.7183 10.9449L74.8808 10.2272C75.174 10.0797 75.4459 9.90475 75.7029 9.70377Z" fill="white"></path></svg>