<svg xmlns="http://www.w3.org/2000/svg" width="186" height="33" viewBox="0 0 186 33"><g><g><g><g><path fill="#202124" d="M.754 3.515C.568 3.462.458 3.363.41 3.204a.391.391 0 0 1 .071-.378c.451-.599 2.319-.915 3.501-.915h.091l.161.005c0 .066.007.132.027.2.013.04.03.08.049.115C3.084 3.12 1.48 3.72.754 3.515zm48.5 1.68a3.087 3.087 0 0 0-2.948-3.986 3.065 3.065 0 0 0-2.947 2.184 3.063 3.063 0 0 0 .001 1.814h-.001l.007.014c.062.199.145.392.248.577l.65 1.502-6.942 22.744L28.47 1.04l-1.545.471-1.546-.471-8.86 29.033-2.08-6.811c.45-.852.797-1.482.874-1.607.472-.793.426-1.829-.147-3.168C12.965 13.339 7.614.793 7.559.666L7.25-.06 5.849 1.814c-.08-.033-.19-.07-.324-.107a.667.667 0 0 0-.823-.423.669.669 0 0 0-.341.248 9.599 9.599 0 0 0-.283-.01C3.117 1.508.795 1.76.17 2.594a.774.774 0 0 0-.131.724c.085.285.298.48.611.57.134.039.285.057.449.057.983 0 2.425-.652 3.49-1.435.15.078.329.1.502.048a.667.667 0 0 0 .442-.442c.05.016.097.03.137.045-.067.213-.096.536.039.978l6.523 21.34.495.4 2.237 7.333 1.556-.474 1.555.474 8.85-29 8.852 29 1.546-.471 1.547.471 7.415-24.295 1.414-.873c.189-.095.363-.207.528-.336l.01-.007-.001-.002a3.067 3.067 0 0 0 1.02-1.505z"/></g><g><path fill="#202124" d="M50.583 20.522c.08-1.183.333-2.289.76-3.318.426-1.03.966-1.92 1.621-2.665a7.15 7.15 0 0 1 2.299-1.755 6.47 6.47 0 0 1 2.84-.635c1.173 0 2.2.233 3.08.698a6.782 6.782 0 0 1 2.22 1.86 8.973 8.973 0 0 1 1.401 2.666 13 13 0 0 1 .62 3.15zm14.385-7.019a8.8 8.8 0 0 0-2.933-2.39c-1.145-.58-2.436-.867-3.87-.867-1.385 0-2.664.295-3.832.89a9.721 9.721 0 0 0-3.055 2.409c-.864 1.016-1.544 2.207-2.036 3.573-.492 1.369-.74 2.828-.74 4.378v.083c0 1.694.27 3.23.803 4.612.532 1.38 1.259 2.565 2.18 3.552a9.676 9.676 0 0 0 3.198 2.284 9.368 9.368 0 0 0 3.821.803c1.946 0 3.579-.388 4.899-1.162 1.32-.775 2.5-1.755 3.54-2.94l-1.361-1.267a12.21 12.21 0 0 1-2.939 2.41c-1.107.647-2.46.972-4.059.972-1.013 0-1.98-.19-2.901-.57a7.275 7.275 0 0 1-2.457-1.663c-.722-.727-1.323-1.611-1.802-2.65-.48-1.036-.76-2.23-.84-3.577h16.88c.025-.169.04-.303.04-.402v-.443c0-1.608-.22-3.094-.66-4.462-.44-1.367-1.065-2.558-1.876-3.573z"/></g><g><path fill="#202124" d="M106.233 2.588L97.53 30.652 89.093 2.596l-.028-.093h-.871L79.769 30.61 71.095 2.68l-.03-.092h-1.19l9.4 30.077h.952l8.381-27.85 8.424 27.85h.953l9.4-30.077z"/></g><g><path fill="#202124" d="M119.77 2.377l-13.596 30.076h1.204l12.836-28.407 12.799 28.33.034.077h1.245L120.697 2.377z"/></g><g><path fill="#202124" d="M140.74 2.588h-1.14v29.865h18.339v-1.105H140.74z"/></g><g><path fill="#202124" d="M172.578 15.206l12.297-12.618h-1.6l-19.176 19.814V2.588h-1.139v29.865h1.14v-8.495l7.695-7.929 12.028 16.37.039.054h1.402z"/></g></g></g></g></svg>