<svg xmlns="http://www.w3.org/2000/svg" width="215" height="62" viewBox="0 0 215 62" fill="none"><g clip-path="url(#clip0_108_42)"><path d="M6.575 0.219238C4.83177 0.221091 3.16047 0.914407 1.92782 2.14706C0.695169 3.37971 0.00185295 5.05101 0 6.79424L0 54.4672C0.00211759 56.2103 0.695551 57.8813 1.92817 59.1138C3.16079 60.3462 4.83194 61.0394 6.575 61.0412H207.81C209.553 61.0394 211.224 60.3462 212.457 59.1138C213.689 57.8813 214.383 56.2103 214.385 54.4672V6.79424C214.383 5.05101 213.69 3.37971 212.457 2.14706C211.225 0.914407 209.553 0.221091 207.81 0.219238L6.575 0.219238Z" fill="white"></path><path d="M71.1458 15.3673L71.9568 12.7763C72.1448 12.1513 72.3008 11.4183 72.4568 10.8093H72.4878C72.6438 11.4183 72.8158 12.1363 73.0188 12.7763L73.8468 15.3663L71.1458 15.3673ZM74.1738 16.8193L75.1258 19.7993H77.1868L73.7678 9.2793H71.3178L67.9458 19.7993H69.9278L70.8338 16.8193H74.1738Z" fill="#243143"></path><path d="M80.057 12.1982L81.289 16.0542C81.508 16.7242 81.664 17.3342 81.805 17.9582H81.852C81.992 17.3342 82.164 16.7412 82.367 16.0542L83.584 12.1982H85.598L82.694 19.8002H80.806L77.98 12.1982H80.057Z" fill="#243143"></path><path d="M91.3866 17.1313C91.3866 17.2713 91.3866 17.4113 91.3396 17.5513C91.2287 17.8624 91.0229 18.1308 90.7512 18.3187C90.4796 18.5065 90.1558 18.6043 89.8256 18.5983C89.2166 18.5983 88.7326 18.2553 88.7326 17.5063C88.7326 16.3503 90.0286 16.0693 91.3866 16.0853V17.1313ZM93.2596 15.2413C93.2596 13.5713 92.5576 12.0273 90.1226 12.0273C88.9206 12.0273 87.9366 12.3543 87.3746 12.6973L87.7496 13.9473C88.2646 13.6173 89.0456 13.3853 89.7946 13.3853C91.1366 13.3853 91.3396 14.2123 91.3396 14.7113V14.8363C88.5306 14.8213 86.8286 15.8043 86.8286 17.7083C86.8286 18.8643 87.6866 19.9723 89.2166 19.9723C90.2156 19.9723 91.0126 19.5503 91.4646 18.9573H91.5116L91.6516 19.8003H93.3846C93.2906 19.3323 93.2596 18.6603 93.2596 17.9743V15.2413Z" fill="#243143"></path><path d="M95.9737 19.7993V12.1993H97.8937V19.8013L95.9737 19.7993ZM96.9258 11.1053C96.2858 11.1053 95.8647 10.6373 95.8647 10.0753C95.8647 9.48227 96.3017 9.03027 96.9417 9.03027C97.5977 9.03027 98.0027 9.48227 98.0187 10.0753C98.0187 10.6373 97.5977 11.1053 96.9417 11.1053H96.9258Z" fill="#243143"></path><path d="M100.656 8.70129H102.576V19.7993H100.656V8.70129Z" fill="#243143"></path><path d="M109.38 17.1313C109.38 17.2713 109.38 17.4113 109.333 17.5513C109.222 17.8624 109.016 18.1308 108.744 18.3187C108.473 18.5065 108.149 18.6043 107.819 18.5983C107.21 18.5983 106.727 18.2553 106.727 17.5063C106.727 16.3503 108.022 16.0693 109.38 16.0853V17.1313ZM111.254 15.2413C111.254 13.5713 110.551 12.0273 108.116 12.0273C106.914 12.0273 105.931 12.3543 105.369 12.6973L105.743 13.9473C106.258 13.6173 107.039 13.3853 107.788 13.3853C109.131 13.3853 109.333 14.2123 109.333 14.7113V14.8363C106.524 14.8213 104.822 15.8043 104.822 17.7083C104.822 18.8643 105.681 19.9723 107.21 19.9723C108.21 19.9723 109.006 19.5503 109.458 18.9573H109.505L109.645 19.8003H111.378C111.285 19.3323 111.254 18.6603 111.254 17.9743V15.2413Z" fill="#243143"></path><path d="M115.888 15.4293C115.888 15.2423 115.919 15.0693 115.95 14.9293C116.153 14.0873 116.871 13.5253 117.651 13.5253C118.931 13.5253 119.571 14.6183 119.571 15.9603C119.571 17.5063 118.838 18.4583 117.636 18.4583C116.808 18.4583 116.138 17.8963 115.934 17.1153C115.902 16.9664 115.887 16.8145 115.888 16.6623V15.4293ZM113.968 17.6773C113.968 18.4423 113.936 19.2853 113.905 19.8003H115.544L115.638 18.6603H115.669C116.216 19.5973 117.09 19.9723 118.073 19.9723C119.79 19.9723 121.522 18.6143 121.522 15.8823C121.538 13.5723 120.212 12.0273 118.354 12.0273C117.215 12.0273 116.388 12.5113 115.919 13.2443H115.888V8.70129H113.968V17.6773Z" fill="#243143"></path><path d="M123.783 8.70129H125.703V19.7993H123.783V8.70129Z" fill="#243143"></path><path d="M129.839 15.1952C129.917 14.4152 130.416 13.3382 131.602 13.3382C132.883 13.3382 133.194 14.4932 133.179 15.1952H129.839ZM134.928 16.5382C134.958 16.3662 134.989 16.0852 134.989 15.7262C134.989 14.0562 134.178 12.0262 131.712 12.0262C129.276 12.0262 127.996 14.0092 127.996 16.1162C127.996 18.4422 129.448 19.9562 131.915 19.9562C133.007 19.9562 133.913 19.7532 134.568 19.4722L134.287 18.1612C133.61 18.3985 132.897 18.5149 132.18 18.5052C130.962 18.5052 129.886 17.9112 129.839 16.5382H134.928Z" fill="#243143"></path><path d="M144.509 18.5823C143.369 18.5823 142.635 17.4743 142.635 16.0073C142.635 14.7433 143.181 13.4163 144.54 13.4163C145.85 13.4163 146.382 14.7893 146.382 15.9763C146.382 17.5213 145.616 18.5823 144.524 18.5823H144.509ZM144.477 19.9723C146.397 19.9723 148.364 18.7223 148.364 15.9293C148.364 13.6183 146.849 12.0273 144.587 12.0273C142.292 12.0273 140.652 13.5563 140.652 16.0543C140.652 18.5043 142.323 19.9723 144.462 19.9723H144.477Z" fill="#243143"></path><path d="M150.625 14.4623C150.625 13.5873 150.594 12.8543 150.562 12.1983H152.232L152.326 13.3383H152.373C152.717 12.7443 153.544 12.0273 154.808 12.0273C156.135 12.0273 157.509 12.8853 157.509 15.2893V19.7993H155.589V15.5093C155.589 14.4163 155.182 13.5883 154.137 13.5883C153.372 13.5883 152.842 14.1353 152.639 14.7123C152.576 14.8693 152.545 15.1023 152.545 15.3213V19.8013H150.625V14.4623Z" fill="#243143"></path><path d="M166.355 10.2473V12.1973H168.181V13.6343H166.355V16.9743C166.355 17.9113 166.605 18.3803 167.339 18.3803C167.681 18.3803 167.869 18.3643 168.088 18.3023L168.119 19.7523C167.838 19.8623 167.323 19.9563 166.729 19.9563C166.012 19.9563 165.434 19.7223 165.075 19.3323C164.653 18.8953 164.467 18.1923 164.467 17.1923V13.6343H163.389V12.1983H164.467V10.7783L166.355 10.2473Z" fill="#243143"></path><path d="M170.319 8.70129H172.239V13.2283H172.27C172.505 12.8683 172.832 12.5733 173.222 12.3703C173.628 12.1438 174.085 12.0256 174.55 12.0273C175.845 12.0273 177.203 12.8853 177.203 15.3203V19.8003H175.283V15.5233C175.283 14.4303 174.877 13.5873 173.815 13.5873C173.066 13.5873 172.536 14.0873 172.317 14.6643C172.259 14.8512 172.232 15.0466 172.239 15.2423V19.8003H170.319V8.70129Z" fill="#243143"></path><path d="M181.29 15.1952C181.368 14.4152 181.867 13.3382 183.054 13.3382C184.334 13.3382 184.645 14.4932 184.63 15.1952H181.29ZM186.379 16.5382C186.409 16.3662 186.44 16.0852 186.44 15.7262C186.44 14.0562 185.629 12.0262 183.163 12.0262C180.727 12.0262 179.447 14.0092 179.447 16.1162C179.447 18.4422 180.899 19.9562 183.366 19.9562C184.458 19.9562 185.364 19.7532 186.019 19.4722L185.738 18.1612C185.061 18.3985 184.348 18.5149 183.631 18.5052C182.413 18.5052 181.337 17.9112 181.29 16.5382H186.379Z" fill="#243143"></path><path d="M46.9509 30.0053C46.9019 24.7993 51.2149 22.2643 51.4109 22.1473C48.9709 18.5853 45.1849 18.1003 43.8559 18.0613C40.6779 17.7283 37.5949 19.9663 35.9789 19.9663C34.3279 19.9663 31.8299 18.0953 29.1459 18.1493C25.6879 18.2053 22.4519 20.2063 20.6799 23.3143C17.0199 29.6523 19.7499 38.9663 23.2559 44.0923C25.0109 46.6003 27.0619 49.4023 29.7449 49.3023C32.3699 49.1923 33.3489 47.6303 36.5189 47.6303C39.6599 47.6303 40.5809 49.3023 43.3179 49.2393C46.1349 49.1933 47.9079 46.7183 49.5999 44.1863C51.6309 41.3113 52.4439 38.4793 52.4759 38.3323C52.4099 38.3113 47.0039 36.2483 46.9509 30.0053Z" fill="#243143"></path><path d="M41.7791 14.6922C43.1911 12.9262 44.1601 10.5222 43.8881 8.08521C41.8451 8.17521 39.2911 9.4972 37.8201 11.2252C36.5171 12.7482 35.3511 15.2442 35.6531 17.5892C37.9511 17.7592 40.3061 16.4292 41.7791 14.6922Z" fill="#243143"></path><path d="M72.8738 39.9472L74.6548 34.3492C75.1208 32.5692 75.4618 31.2252 75.6748 30.3122H75.7378C76.2668 32.4312 76.6268 33.7792 76.8208 34.3492L78.6318 39.9472H72.8738ZM77.9618 27.4502H73.7038L66.7988 48.8882H70.3608L72.2708 42.5882H79.2338L81.2388 48.8882H84.8948L77.9618 27.4502Z" fill="#243143"></path><path d="M99.1458 41.0932C99.1458 42.7272 98.7868 44.0402 98.0628 45.0382C97.3448 46.0372 96.3368 46.5312 95.0428 46.5312C93.9408 46.5312 93.0448 46.1482 92.3528 45.3712C91.6658 44.5992 91.3238 43.6502 91.3238 42.5262V39.9462C91.3238 39.6732 91.3748 39.3262 91.4808 38.9012C91.6928 37.9882 92.1438 37.2532 92.8338 36.6872C93.5178 36.1292 94.2898 35.8442 95.1398 35.8442C96.3878 35.8442 97.3848 36.3542 98.1278 37.3722C98.8058 38.3482 99.1458 39.5892 99.1458 41.0932ZM100.816 35.2752C99.5968 33.8332 98.0728 33.1112 96.2518 33.1112C93.9208 33.1112 92.1808 34.0332 91.0368 35.8792H90.9718L90.7798 33.4292H87.7598C87.8448 35.1692 87.8858 36.8642 87.8858 38.5172V55.1832H91.3238V47.0412H91.3838C92.2748 48.5012 93.7388 49.2362 95.7758 49.2362C97.6598 49.2362 99.2408 48.5592 100.513 47.2022C101.935 45.6742 102.644 43.5962 102.644 40.9672L100.816 35.2752Z" fill="#243143"></path><path d="M116.926 41.0932C116.926 42.7272 116.562 44.0402 115.843 45.0382C115.124 46.0372 114.114 46.5312 112.823 46.5312C111.716 46.5312 110.823 46.1482 110.133 45.3712C109.443 44.5992 109.101 43.6502 109.101 42.5262V39.9462C109.101 39.6732 109.152 39.3262 109.262 38.9012C109.473 37.9882 109.922 37.2532 110.611 36.6872C111.298 36.1292 112.068 35.8442 112.918 35.8442C114.168 35.8442 115.163 36.3542 115.906 37.3722C116.586 38.3482 116.926 39.5892 116.926 41.0932ZM120.422 40.9672C120.422 38.6152 119.814 36.7192 118.596 35.2752C117.375 33.8332 115.853 33.1112 114.032 33.1112C111.696 33.1112 109.958 34.0332 108.818 35.8792H108.752L108.56 33.4292H105.54C105.623 35.1692 105.667 36.8642 105.667 38.5172V55.1832H109.101V47.0412H109.165C110.056 48.5012 111.517 49.2362 113.552 49.2362C115.44 49.2362 117.018 48.5592 118.29 47.2022C119.713 45.6742 120.422 43.5962 120.422 40.9672Z" fill="#243143"></path><path d="M140.302 42.8752C140.302 44.6992 139.67 46.1823 138.396 47.3283C137 48.5813 135.055 49.2043 132.559 49.2043C130.253 49.2043 128.401 48.7593 127.001 47.8703L127.797 45.0072C129.307 45.9192 130.96 46.3732 132.764 46.3732C134.058 46.3732 135.065 46.0822 135.788 45.5002C136.507 44.9152 136.867 44.1332 136.867 43.1572C136.867 42.2872 136.57 41.5523 135.978 40.9593C135.385 40.3633 134.395 39.8123 133.016 39.3022C129.263 37.8993 127.389 35.8502 127.389 33.1522C127.389 31.3902 128.045 29.9453 129.361 28.8223C130.674 27.6953 132.424 27.1302 134.609 27.1302C136.56 27.1302 138.183 27.4723 139.474 28.1493L138.617 30.9482C137.408 30.2932 136.041 29.9632 134.512 29.9632C133.303 29.9632 132.361 30.2593 131.683 30.8533C131.114 31.3833 130.826 32.0313 130.826 32.7933C130.826 33.6403 131.152 34.3423 131.81 34.8913C132.38 35.4013 133.42 35.9512 134.927 36.5472C136.772 37.2902 138.126 38.1573 138.998 39.1543C139.867 40.1523 140.302 41.3932 140.302 42.8752Z" fill="#243143"></path><path d="M151.656 36.0052H147.871V43.5112C147.871 45.4202 148.539 46.3732 149.877 46.3732C150.488 46.3732 150.998 46.3202 151.401 46.2162L151.495 48.8232C150.821 49.0782 149.928 49.2032 148.826 49.2032C147.468 49.2032 146.407 48.7912 145.645 47.9662C144.882 47.1382 144.5 45.7462 144.5 43.7982V36.0052H142.241V33.4272H144.5V30.5972L147.871 29.5792V33.4272H151.656V36.0052Z" fill="#243143"></path><path d="M165.173 41.1422C165.173 42.5672 164.855 43.8002 164.219 44.8422C163.479 46.0972 162.449 46.7222 161.138 46.7222C159.798 46.7222 158.759 46.1072 158.018 44.8742C157.402 43.8542 157.099 42.6332 157.099 41.2082C157.099 39.7382 157.402 38.4962 158.018 37.4742C158.737 36.2412 159.786 35.6242 161.168 35.6242C162.502 35.6242 163.532 36.2412 164.25 37.4742C164.867 38.4962 165.173 39.7172 165.173 41.1422ZM168.737 41.0312C168.737 38.7192 168.081 36.8352 166.765 35.3692C165.387 33.8642 163.561 33.1112 161.293 33.1112C158.939 33.1112 157.067 33.8732 155.681 35.4032C154.29 36.9282 153.598 38.8892 153.598 41.2882C153.598 43.5742 154.27 45.4732 155.618 46.9772C156.965 48.4832 158.769 49.2362 161.041 49.2362C163.391 49.2362 165.279 48.4542 166.702 46.8842C168.06 45.3562 168.737 43.4072 168.737 41.0312Z" fill="#243143"></path><path d="M179.899 36.4492C179.542 36.3863 179.181 36.3549 178.819 36.3552C177.613 36.3552 176.675 36.8142 176.017 37.7242C175.447 38.5302 175.16 39.5482 175.16 40.7762V48.8862H171.728L171.757 38.2962C171.757 36.5152 171.713 34.8932 171.631 33.4292H174.622L174.748 36.3892H174.84C175.202 35.3712 175.777 34.5542 176.559 33.9392C177.321 33.3882 178.151 33.1112 179.042 33.1112C179.358 33.1112 179.647 33.1332 179.899 33.1712V36.4492Z" fill="#243143"></path><path d="M184.832 39.5352C184.934 38.4952 185.274 37.6072 185.847 36.8642C186.546 35.9322 187.459 35.4642 188.58 35.4642C189.809 35.4642 190.724 35.9422 191.319 36.8962C191.785 37.6392 192.008 38.5202 191.984 39.5352H184.832ZM195.259 40.4252C195.259 38.4952 194.805 36.8742 193.898 35.5582C192.751 33.9052 191.061 33.0802 188.835 33.0802C186.568 33.0802 184.764 33.9052 183.432 35.5582C182.157 37.1082 181.521 39.0482 181.521 41.3802C181.521 43.7542 182.208 45.6502 183.572 47.0582C184.939 48.4682 186.823 49.1752 189.217 49.1752C191.213 49.1752 192.941 48.8552 194.402 48.2192L193.863 45.8332C192.611 46.3202 191.219 46.5632 189.698 46.5632C188.318 46.5632 187.192 46.2062 186.325 45.4852C185.371 44.6792 184.871 43.5112 184.832 41.9852H195.135C195.218 41.5592 195.259 41.0432 195.259 40.4252Z" fill="#243143"></path></g><defs><clipPath id="clip0_108_42"><rect width="215" height="61" fill="white" transform="translate(0 0.219238)"></rect></clipPath></defs></svg>